<svg xmlns="http://www.w3.org/2000/svg" viewBox="0 0 48 48"><defs><linearGradient id="sby-base" x1="0" y1="0" x2="1" y2="1"><stop offset="0" stop-color="#ffd592"/><stop offset="0.08" stop-color="#ffcc7c"/><stop offset="0.2" stop-color="#ffbe58"/><stop offset="0.34" stop-color="#ffb641"/><stop offset="0.5" stop-color="#ffb434"/><stop offset="0.62" stop-color="#ffc22e"/><stop offset="0.78" stop-color="#ffd61b"/><stop offset="1" stop-color="#f4c009"/></linearGradient><radialGradient id="sby-hi" cx=".12" cy=".1" r=".42"><stop offset="0" stop-color="#fff" stop-opacity="0.3"/><stop offset="0.5" stop-color="#fff" stop-opacity="0.08"/><stop offset="1" stop-color="#fff" stop-opacity="0"/></radialGradient><linearGradient id="sby-bvr" x1="0" y1="0" x2="1" y2="0"><stop offset="0.84" stop-color="#9a5a00" stop-opacity="0"/><stop offset="0.93" stop-color="#9a5a00" stop-opacity="0.16"/><stop offset="1" stop-color="#9a5a00" stop-opacity="0.5"/></linearGradient><linearGradient id="sby-bvb" x1="0" y1="0" x2="0" y2="1"><stop offset="0.84" stop-color="#9a5a00" stop-opacity="0"/><stop offset="0.93" stop-color="#9a5a00" stop-opacity="0.16"/><stop offset="1" stop-color="#9a5a00" stop-opacity="0.5"/></linearGradient><linearGradient id="sby-edge" x1="0" y1="0" x2="1" y2="1"><stop offset="0" stop-color="#f2a843"/><stop offset="0.55" stop-color="#e39414"/><stop offset="1" stop-color="#ad6a0a"/></linearGradient><filter id="sby-glow" filterUnits="userSpaceOnUse" x="0" y="0" width="48" height="48"><feGaussianBlur stdDeviation=".85"/><feComponentTransfer><feFuncA type="linear" slope=".75"/></feComponentTransfer><feMerge><feMergeNode/><feMergeNode in="SourceGraphic"/></feMerge></filter></defs><rect x="1.5" y="1.5" width="45" height="45" rx="4" fill="url(#sby-base)"/><rect x="1.5" y="1.5" width="45" height="45" rx="4" fill="url(#sby-hi)"/><rect x="1.5" y="1.5" width="45" height="45" rx="4" fill="url(#sby-bvr)"/><rect x="1.5" y="1.5" width="45" height="45" rx="4" fill="url(#sby-bvb)"/><rect x="1.5" y="1.5" width="45" height="45" rx="4" fill="none" stroke="url(#sby-edge)"/><g filter="url(#sby-glow)" fill="none" stroke="#fff" stroke-width="2.8" stroke-linecap="round" stroke-linejoin="round"><path d="M31.97 14.7A12.4 12.4 0 1 1 16.03 14.7"/><path d="M24 9.4V22.4"/></g></svg>