<svg xmlns="http://www.w3.org/2000/svg" viewBox="0 0 48 48" width="48" height="48"><defs><filter id="tm-sh" x="-15%" y="-15%" width="135%" height="135%" color-interpolation-filters="sRGB"><feGaussianBlur in="SourceAlpha" stdDeviation=".75"/><feOffset dx="1.1" dy="1.3"/><feComponentTransfer><feFuncA type="linear" slope=".42"/></feComponentTransfer><feMerge><feMergeNode/><feMergeNode in="SourceGraphic"/></feMerge></filter><linearGradient id="tm-f" x1="0" y1="4.4" x2="0" y2="42.4" gradientUnits="userSpaceOnUse"><stop offset="0" stop-color="#4b97f3"/><stop offset=".3" stop-color="#1f6ad8"/><stop offset="1" stop-color="#0a47b3"/></linearGradient><linearGradient id="tm-t" x1="0" y1="5.2" x2="0" y2="12.8" gradientUnits="userSpaceOnUse"><stop offset="0" stop-color="#6aabff"/><stop offset=".16" stop-color="#3d8ef7"/><stop offset=".42" stop-color="#0a5fe0"/><stop offset=".82" stop-color="#0752cf"/><stop offset="1" stop-color="#1c69e4"/></linearGradient><linearGradient id="tm-tg" x1="0" y1="5.2" x2="0" y2="8.9" gradientUnits="userSpaceOnUse"><stop offset="0" stop-color="#fff" stop-opacity=".3"/><stop offset="1" stop-color="#fff" stop-opacity="0"/></linearGradient><linearGradient id="tm-x" x1="0" y1="7.4" x2="0" y2="12" gradientUnits="userSpaceOnUse"><stop offset="0" stop-color="#f9a58a"/><stop offset=".45" stop-color="#e2512e"/><stop offset="1" stop-color="#b8260f"/></linearGradient><linearGradient id="tm-m" x1="0" y1="17" x2="0" y2="38" gradientUnits="userSpaceOnUse"><stop offset="0" stop-color="#7dff7d"/><stop offset="1" stop-color="#14cc14"/></linearGradient><linearGradient id="tm-k" x1="6" y1="14" x2="22" y2="32" gradientUnits="userSpaceOnUse"><stop offset="0" stop-color="#fff" stop-opacity=".13"/><stop offset=".5" stop-color="#fff" stop-opacity=".03"/><stop offset=".51" stop-color="#fff" stop-opacity="0"/></linearGradient></defs><g filter="url(#tm-sh)"><path d="M2.6 7.2A2.8 2.8 0 0 1 5.4 4.4H41.4A2.8 2.8 0 0 1 44.2 7.2V41.5A.9 .9 0 0 1 43.3 42.4H3.5A.9 .9 0 0 1 2.6 41.5Z" fill="url(#tm-f)" stroke="#06307e" stroke-width=".8"/><path d="M3.4 7.3A2.1 2.1 0 0 1 5.5 5.2H41.3A2.1 2.1 0 0 1 43.4 7.3V12.8H3.4Z" fill="url(#tm-t)"/><path d="M3.4 7.3A2.1 2.1 0 0 1 5.5 5.2H41.3A2.1 2.1 0 0 1 43.4 7.3V8.9H3.4Z" fill="url(#tm-tg)"/><path d="M5.2 5.75H41.6" stroke="#fff" stroke-opacity=".55" stroke-width=".5"/><rect x="38" y="6.25" width="4.5" height="4.5" rx=".9" fill="url(#tm-x)" stroke="#fff" stroke-width=".5"/><path d="M39.35 7.6L41.15 9.4M41.15 7.6L39.35 9.4" stroke="#fff" stroke-width=".75" stroke-linecap="round"/><rect x="4.3" y="13.5" width="38.2" height="27.2" fill="#000" stroke="#062a70" stroke-width=".5"/><path d="M6.3 15.7h2.1v1.52h-2.1ZM8.8 15.7h2.1v1.52h-2.1ZM6.3 17.77h2.1v1.52h-2.1ZM8.8 17.77h2.1v1.52h-2.1ZM6.3 19.85h2.1v1.52h-2.1ZM8.8 19.85h2.1v1.52h-2.1ZM6.3 21.92h2.1v1.52h-2.1ZM8.8 21.92h2.1v1.52h-2.1ZM6.3 23.99h2.1v1.52h-2.1ZM8.8 23.99h2.1v1.52h-2.1ZM6.3 26.06h2.1v1.52h-2.1ZM8.8 26.06h2.1v1.52h-2.1Z" fill="#0d4a12"/><path d="M6.3 28.14h2.1v1.52h-2.1ZM8.8 28.14h2.1v1.52h-2.1ZM6.3 30.21h2.1v1.52h-2.1ZM8.8 30.21h2.1v1.52h-2.1ZM6.3 32.28h2.1v1.52h-2.1ZM8.8 32.28h2.1v1.52h-2.1ZM6.3 34.35h2.1v1.52h-2.1ZM8.8 34.35h2.1v1.52h-2.1ZM6.3 36.43h2.1v1.52h-2.1ZM8.8 36.43h2.1v1.52h-2.1Z" fill="url(#tm-m)"/><path d="M12.7 15.5H40.7M12.7 20.1H40.7M12.7 24.7H40.7M12.7 29.3H40.7M12.7 33.9H40.7M12.7 38.5H40.7M12.7 15.5V38.5M17.37 15.5V38.5M22.03 15.5V38.5M26.7 15.5V38.5M31.37 15.5V38.5M36.03 15.5V38.5M40.7 15.5V38.5" stroke="#12772a" stroke-width=".45"/><path d="M12.7 32.06L15.81 29.3L18.92 33.44L22.03 25.16L25.14 28.15L28.26 20.56L31.37 26.54L34.48 22.4L37.59 29.76L40.7 23.78" fill="none" stroke="#00ff00" stroke-width="2.6" stroke-opacity=".22" stroke-linejoin="round"/><path d="M12.7 32.06L15.81 29.3L18.92 33.44L22.03 25.16L25.14 28.15L28.26 20.56L31.37 26.54L34.48 22.4L37.59 29.76L40.7 23.78" fill="none" stroke="#45ff45" stroke-width="1.2" stroke-linejoin="round" stroke-linecap="round"/><path d="M4.6 13.8L22.3 13.8L4.6 27.5Z" fill="url(#tm-k)"/></g></svg>
